<svg width="90" height="45" viewBox="0 0 90 45" fill="none" xmlns="http://www.w3.org/2000/svg">
<path d="M87.0031 36.0687L2.99658 45V24.0949L87.0031 15.1636V36.0687Z" fill="#7900A2"/>
<path d="M90 30.7197L0 40.3135V0L90 8.34242V30.7197Z" fill="#56008A"/>
<path d="M28.335 8.73502H42.2224V12.5136H37.5201V35.2099H33.0372V12.5136H28.335V8.73502Z" fill="white"/>
<path d="M48.4839 8.735V29.1494C48.4839 31.0387 49.3853 31.7257 50.8228 31.7257C52.2603 31.7257 53.1374 31.0387 53.1374 29.1494V8.735H57.3767V28.8795C57.3767 33.1243 55.0865 35.5289 50.6766 35.5289C46.2668 35.5289 43.9766 33.1243 43.9766 28.8795V8.735H48.4839Z" fill="white"/>
<path d="M59.1309 8.735H73.0182V12.5136H68.316V35.2099H63.8331V12.5136H59.1309V8.735Z" fill="white"/>
<path d="M10.7439 5.15268C10.9876 6.33044 11.1094 7.11561 11.3286 7.90077C11.4505 8.34243 11.3043 8.46511 10.8901 8.56326C10.4759 8.66141 10.0861 8.78409 10.013 8.24429C9.745 6.60034 8.89226 5.17722 8.16135 3.70503C7.94208 3.26337 7.60098 2.7481 8.50244 2.45367C9.30645 2.18376 9.91555 2.23284 10.1835 3.01801C10.4272 3.82771 10.6221 4.68649 10.7439 5.15268Z" fill="white"/>
<path d="M17.9076 19.8255C18.005 20.9297 17.3228 23.3588 13.8145 22.5982C14.8621 22.0338 15.1301 20.9788 14.8134 20.0218C14.2286 18.2552 17.7614 18.3779 17.9076 19.8255Z" fill="white"/>
<path d="M11.6701 25.8124C10.5006 25.8861 8.86821 25.518 8.77076 24.3648C8.47839 20.9788 12.4253 24.5856 14.4475 24.144C14.4475 24.6347 13.5704 25.6652 11.6701 25.8124Z" fill="white"/>
<path d="M14.9836 28.6587C13.5705 28.1189 13.2781 28.4133 12.7177 28.4869C12.6447 28.217 12.7177 27.6527 12.9127 27.162C13.0345 26.8184 13.3999 26.3768 13.7167 26.205C14.3258 25.9106 14.9349 25.837 15.7389 26.205C17.2251 26.9166 16.348 29.174 14.9836 28.6587Z" fill="white"/>
<path d="M11.597 12.4891C10.3058 13.0534 9.98903 12.7835 9.47739 12.7345C9.42866 13.0044 9.52611 13.5196 9.69666 13.9613C9.84284 14.2803 10.1839 14.6728 10.5007 14.8201C11.0854 15.09 11.6701 15.1145 12.401 14.7465C13.7654 14.0104 12.864 11.9493 11.597 12.4891Z" fill="white"/>
<path d="M15.8366 34.6947C15.9828 35.578 15.4955 36.3632 14.789 36.4122C14.2042 36.4613 13.5708 36.4368 13.3759 35.7988C13.2297 35.2836 14.3017 34.0322 14.8864 33.9586C15.5686 33.8604 15.7392 34.3266 15.8366 34.6947Z" fill="white"/>
<path d="M6.89478 16.5622C7.33332 17.6172 6.96787 18.5987 6.01768 18.9422C5.23804 19.2121 4.43403 18.8931 3.94675 18.2797C3.26456 17.3964 3.75184 15.458 4.70203 13.9858C5.18931 15.8015 6.65114 15.6053 6.89478 16.5622Z" fill="white"/>
<path d="M12.5476 18.795C13.4734 19.0404 14.0825 20.1445 13.9851 21.0278C13.9363 21.4204 13.717 21.7639 13.4978 21.9602C12.7669 22.6718 11.5487 22.5736 11.1832 22.5491C9.18538 22.3283 7.47991 20.7579 7.65045 17.9853C10.233 19.8255 10.8421 18.3533 12.5476 18.795Z" fill="white"/>
<path d="M12.5719 34.9155C12.7912 35.6516 11.5243 35.3081 10.8421 35.0136C9.96499 34.6211 9.81881 33.6396 9.79445 33.0017C9.74572 32.0202 10.4279 31.6767 11.3537 31.8484C13.0592 32.0938 12.2065 33.6887 12.5719 34.9155Z" fill="white"/>
<path d="M14.2286 11.9002C14.9595 11.2132 16.0071 11.6549 16.5188 12.44C17.3228 13.6178 16.738 14.5747 16.4944 15.3599C16.0558 14.403 15.398 13.8877 14.7646 13.5932C14.2529 13.3479 13.4245 12.7835 14.2286 11.9002Z" fill="white"/>
<path d="M9.55071 28.1189C10.1842 28.0943 11.11 27.9471 11.5973 27.211C11.7922 28.0943 11.4755 29.4684 11.0613 30.1554C10.8664 30.4744 10.0867 31.235 9.33144 31.2596C8.04016 31.3332 7.72343 30.5725 7.62597 30.1799C7.4067 29.3212 7.99143 28.1925 9.55071 28.1189Z" fill="white"/>
<path d="M19.9784 16.1451C20.0758 17.0284 19.7104 18.0098 18.5166 18.5251C17.8344 18.8195 16.738 17.2492 16.7867 16.5622C16.8598 15.7034 17.4689 15.09 18.3947 14.8937C19.4667 14.6483 19.8809 15.3354 19.9784 16.1451Z" fill="white"/>
<path d="M23.1455 27.8981C23.2429 28.3152 23.0237 31.7258 20.0513 31.3823C20.2949 30.4008 21.5131 29.7874 20.7822 28.3888C20.1731 27.211 22.7313 26.2296 23.1455 27.8981Z" fill="white"/>
<path d="M15.8848 15.8506C16.2259 16.5867 15.495 18.0835 14.0818 18.2552C13.0342 18.3779 12.4982 18.0344 12.1815 17.2492C11.816 16.3168 12.3033 15.2863 13.2291 14.9182C14.228 14.5011 15.3975 14.8201 15.8848 15.8506Z" fill="white"/>
<path d="M6.31011 24.0704C3.84936 24.4139 3.53263 20.5126 3.89809 19.9482C4.04427 19.5556 4.53155 19.2857 5.48174 19.9973C5.99338 20.3899 6.82175 20.5616 7.60139 21.1505C8.30795 21.6903 8.23485 23.825 6.31011 24.0704Z" fill="white"/>
<path d="M17.8102 36.1178C17.4935 36.0932 17.0793 35.7988 16.9331 35.5534C18.4437 35.2345 17.4691 33.3206 18.9066 34.1549C19.5157 34.4984 19.7106 36.1914 17.8102 36.1178Z" fill="white"/>
<path d="M18.9551 31.6521C17.0791 32.1429 18.3948 34.3757 16.5187 33.4924C15.8853 33.198 15.1787 31.6767 16.8842 31.0878C17.1766 30.9897 18.3704 30.7934 18.9551 31.6521Z" fill="white"/>
<path d="M20.953 20.0954C21.0505 21.4449 20.417 22.9417 19.6374 23.2361C19.7592 21.2241 17.4933 20.0709 19.1988 19.3103C19.881 18.9913 20.9043 19.2857 20.953 20.0954Z" fill="white"/>
<path d="M21.6101 26.2541C20.9523 26.3277 20.3432 26.1069 20.1727 25.2726C19.929 24.193 21.3665 23.9722 21.7076 21.4449C23.3643 23.6778 22.6578 26.0578 21.6101 26.2541Z" fill="white"/>
<path d="M16.6887 29.4439C16.4694 28.6587 17.6145 28.5115 17.3952 27.8244C17.2003 27.211 18.0287 26.9657 18.5403 26.9657C20.0265 26.9657 20.0265 28.7814 19.4418 29.6156C18.8814 30.4744 16.7374 30.0082 16.6887 29.4439Z" fill="white"/>
<path d="M18.1266 22.1074C18.6383 23.0398 19.3448 25.15 18.1266 25.9842C17.4201 26.4749 16.1531 26.2296 15.9826 25.2972C15.6659 23.6532 17.3226 23.8986 18.1266 22.1074Z" fill="white"/>
<path d="M11.3533 9.00491C12.5959 8.63686 14.3013 9.25027 13.9602 10.1336C13.8628 10.4035 13.741 10.8206 12.9857 11.2132C12.2304 11.6058 12.1573 11.2132 11.0609 11.434C10.2326 11.6058 8.96565 11.8511 9.1362 10.9678C9.37984 9.81461 10.8173 9.17666 11.3533 9.00491Z" fill="white"/>
<path d="M8.81987 10.1091C7.50422 11.8757 8.69805 13.1271 7.96713 13.9858C7.77222 14.2312 7.57731 14.4766 7.06567 14.6238C6.82203 14.6974 6.45658 14.6238 6.2373 14.5502C5.55511 14.3539 5.04347 13.5687 5.3602 12.5627C5.65257 11.6058 6.67585 10.7961 8.81987 10.1091Z" fill="white"/>
<path d="M7.79632 27.4564C6.74868 27.3092 5.87158 26.9902 5.82285 25.837C5.74976 23.6778 8.25923 26.3768 10.1596 26.3032C9.9647 27.211 8.57596 27.5791 7.79632 27.4564Z" fill="white"/>
<path d="M12.9371 29.542C13.3025 29.223 13.9604 29.1494 14.5695 29.4439C15.7146 29.9837 15.4466 32.4619 13.9847 33.5415C13.4487 31.8239 12.4985 31.7994 12.3524 30.9406C12.2549 30.2781 12.4742 29.9346 12.9371 29.542Z" fill="white"/>
<path d="M16.6893 11.3359C16.2507 10.3054 14.4965 10.7961 14.5696 9.91277C14.6183 9.52018 14.9838 9.29935 15.4467 9.27482C16.4456 9.22574 17.0303 10.1336 16.6893 11.3359Z" fill="white"/>
<path d="M20.5142 34.0567C19.7102 34.0077 19.4666 33.3452 19.5396 32.8544C19.6127 32.3392 21.0746 32.7563 22.2684 31.7748C22.2197 32.3637 21.2451 34.1058 20.5142 34.0567Z" fill="white"/>
<path d="M17.9317 11.6058C19.0281 11.6058 19.4666 14.0349 17.8343 14.2312C18.419 13.3724 16.275 11.6303 17.9317 11.6058Z" fill="white"/>
<path d="M9.30686 33.6396C8.81958 33.6641 8.45412 33.2225 8.30794 32.879C8.16176 32.5109 8.25921 32.1183 8.50285 32.0693C8.77086 31.9957 9.11195 32.1183 9.11195 32.5845C9.13631 33.0507 9.06322 33.3206 9.30686 33.6396Z" fill="white"/>
<path d="M9.96474 17.9117C9.20946 18.0098 8.23491 17.1756 8.16181 16.096C8.11309 15.2617 8.23491 14.6729 8.94146 14.2312C8.99018 14.6974 9.38001 15.3108 10.2571 15.7034C11.5971 16.2677 11.1829 17.7399 9.96474 17.9117Z" fill="white"/>
</svg>
